# xmcd
#
# Track frame offsets: 
#        150
#        22778
#        41532
#        62473
#        85191
#        106598
#        126561
#        148561
#        168434
#        188611
#
# Disc length: 2768 seconds
#
# Revision: 0
# Processed by: cddbd v1.5.2PL0 Copyright (c) Steve Scherf et al.
# Submitted via: ExactAudioCopyFreeDBPlugin 1.0
#
DISCID=750ace0a
DTITLE=Karizma - Day One (Na'l Pou Youn)
DYEAR=2011
DGENRE=World
TTITLE0=Pap Divorce
TTITLE1=Karizma NYC (Zen Pete)
TTITLE2=Chwa Pa'l
TTITLE3=Avel M'relax
TTITLE4=Stand By
TTITLE5=Next Time
TTITLE6=Confessions
TTITLE7=Took A Risk
TTITLE8=Yon Chance (Haiti)
TTITLE9=Bon Fet Manmi
EXTD=
EXTT0=
EXTT1=
EXTT2=
EXTT3=
EXTT4=
EXTT5=
EXTT6=
EXTT7=
EXTT8=
EXTT9=
PLAYORDER=
